<svg width="28" height="28" viewBox="0 0 28 28" fill="none" xmlns="http://www.w3.org/2000/svg">
<g clip-path="url(#clip0_2459_63)">
<path d="M18.0501 1.92407C16.8455 1.92377 15.6575 2.20119 14.5815 2.73411C13.5054 3.26702 12.5712 4.04061 11.8536 4.99288C11.136 5.94515 10.6551 7.04962 10.4493 8.21777C10.2435 9.38592 10.3186 10.5853 10.6686 11.7197L1.76465 20.4832V25.5447H6.90741L15.8113 16.7813C16.8724 17.0984 17.9904 17.1866 19.0893 17.0399C20.1881 16.8932 21.2419 16.5151 22.1788 15.9313C23.1157 15.3475 23.9138 14.5718 24.5185 13.657C25.1233 12.7422 25.5205 11.7098 25.6832 10.6302C25.8459 9.55064 25.7701 8.44923 25.4612 7.40106C25.1522 6.35289 24.6173 5.38259 23.8928 4.55631C23.1684 3.73002 22.2715 3.06717 21.2632 2.61293C20.2549 2.15868 19.159 1.92373 18.0501 1.92407ZM18.0501 15.4216C17.4599 15.4212 16.873 15.3353 16.3082 15.1667L15.3253 14.8732L14.5991 15.5879L11.8725 18.2716L10.6909 17.1088L9.47879 18.3017L10.6605 19.4647L9.30119 20.8026L8.11947 19.6396L6.90741 20.8325L8.08913 21.9955L6.19737 23.8575H3.4789V21.182L11.8807 12.9128L12.6069 12.198L12.3092 11.2306C11.9428 10.042 11.9666 8.7699 12.3772 7.59534C12.7878 6.42078 13.5642 5.40356 14.5961 4.68836C15.6279 3.97316 16.8626 3.59642 18.1246 3.61171C19.3866 3.627 20.6115 4.03356 21.6251 4.77355C22.6388 5.51354 23.3895 6.54927 23.7706 7.73342C24.1516 8.91757 24.1436 10.1898 23.7476 11.3692C23.3517 12.5486 22.5879 13.5751 21.565 14.3026C20.5421 15.0302 19.3121 15.4217 18.0501 15.4216Z" fill="black"/>
<path d="M18.9071 10.36C19.8539 10.36 20.6214 9.60459 20.6214 8.67278C20.6214 7.74098 19.8539 6.9856 18.9071 6.9856C17.9604 6.9856 17.1929 7.74098 17.1929 8.67278C17.1929 9.60459 17.9604 10.36 18.9071 10.36Z" fill="black"/>
</g>
<defs>
<clipPath id="clip0_2459_63">
<rect width="27.4281" height="26.995" fill="white" transform="translate(0.050293 0.236816)"/>
</clipPath>
</defs>
</svg>
