<svg width="35" height="35" viewBox="0 0 35 35" fill="none" xmlns="http://www.w3.org/2000/svg">
<g clip-path="url(#clip0_2539_491)">
<path d="M30.875 11.5625V15.9375M30.875 15.9375V20.3125M30.875 15.9375H35.25M30.875 15.9375H26.5M23.2188 9.92188C23.2188 11.2272 22.7002 12.4791 21.7772 13.4022C20.8541 14.3252 19.6022 14.8438 18.2969 14.8438C16.9915 14.8438 15.7396 14.3252 14.8166 13.4022C13.8936 12.4791 13.375 11.2272 13.375 9.92188C13.375 8.61651 13.8936 7.36461 14.8166 6.44158C15.7396 5.51855 16.9915 5 18.2969 5C19.6022 5 20.8541 5.51855 21.7772 6.44158C22.7002 7.36461 23.2188 8.61651 23.2188 9.92188ZM9 28.676V28.5156C9 26.0499 9.97949 23.6852 11.723 21.9417C13.4665 20.1982 15.8312 19.2188 18.2969 19.2188C20.7626 19.2188 23.1273 20.1982 24.8708 21.9417C26.6143 23.6852 27.5938 26.0499 27.5938 28.5156V28.6746C24.7872 30.3649 21.5717 31.2555 18.2954 31.25C14.896 31.25 11.7154 30.3094 9 28.6746V28.676Z" stroke="black" stroke-width="1.5" stroke-linecap="round" stroke-linejoin="round"/>
</g>
<defs>
<clipPath id="clip0_2539_491">
<rect width="35" height="35" fill="white"/>
</clipPath>
</defs>
</svg>
