<svg width="35" height="35" viewBox="0 0 35 35" fill="none" xmlns="http://www.w3.org/2000/svg">
<path d="M9.8 20.1673C9.45 20.211 9.1 20.2577 8.75 20.3073M9.8 20.1673C14.9133 19.5258 20.0867 19.5258 25.2 20.1673M9.8 20.1673L9.24583 26.25M25.2 20.1673C25.55 20.211 25.9 20.2577 26.25 20.3073M25.2 20.1673L25.7542 26.25L26.0881 29.9294C26.1088 30.1564 26.0819 30.3852 26.0092 30.6013C25.9366 30.8173 25.8197 31.0158 25.666 31.1842C25.5123 31.3525 25.3252 31.487 25.1167 31.5791C24.9082 31.6711 24.6827 31.7187 24.4548 31.7188H10.5452C9.57979 31.7188 8.82438 30.8904 8.91188 29.9294L9.24583 26.25M9.24583 26.25H7.65625C6.78601 26.25 5.95141 25.9043 5.33606 25.2889C4.7207 24.6736 4.375 23.839 4.375 22.9688V13.79C4.375 12.2135 5.495 10.8515 7.05396 10.6181C7.98138 10.4794 8.9115 10.3593 9.84375 10.2579M25.7513 26.25H27.3423C27.7733 26.2502 28.2002 26.1655 28.5984 26.0006C28.9967 25.8358 29.3586 25.5942 29.6634 25.2895C29.9683 24.9848 30.2101 24.623 30.3751 24.2248C30.5401 23.8266 30.625 23.3998 30.625 22.9688V13.79C30.625 12.2135 29.505 10.8515 27.946 10.6181C27.0186 10.4794 26.0885 10.3593 25.1563 10.2579M25.1563 10.2579C20.0671 9.70419 14.9329 9.70419 9.84375 10.2579M25.1563 10.2579V4.92188C25.1563 4.01625 24.4213 3.28125 23.5156 3.28125H11.4844C10.5788 3.28125 9.84375 4.01625 9.84375 4.92188V10.2579M26.25 15.3125H26.2617V15.3242H26.25V15.3125ZM21.875 15.3125H21.8867V15.3242H21.875V15.3125Z" stroke="black" stroke-width="1.5" stroke-linecap="round" stroke-linejoin="round"/>
</svg>
