<svg width="35" height="35" viewBox="0 0 35 35" fill="none" xmlns="http://www.w3.org/2000/svg">
<path d="M23.3668 13.6326H30.6468L26.0078 8.99072C24.5143 7.4972 22.6539 6.42317 20.6137 5.8766C18.5735 5.33004 16.4254 5.3302 14.3853 5.87707C12.3452 6.42394 10.485 7.49824 8.99169 8.99199C7.49841 10.4857 6.42468 12.3463 5.87844 14.3866M4.35302 28.6476V21.3676M4.35302 21.3676H11.633M4.35302 21.3676L8.99052 26.0095C10.484 27.503 12.3444 28.577 14.3846 29.1236C16.4248 29.6702 18.5729 29.67 20.613 29.1231C22.6532 28.5763 24.5134 27.502 26.0066 26.0082C27.4999 24.5145 28.5737 22.6539 29.1199 20.6136M30.6468 6.3526V13.6297" stroke="black" stroke-width="1.5" stroke-linecap="round" stroke-linejoin="round"/>
</svg>
