<svg width="35" height="35" viewBox="0 0 35 35" fill="none" xmlns="http://www.w3.org/2000/svg">
<path d="M21.4163 16.7891L9.30957 14.6562V30.4161C9.30971 30.5873 9.34358 30.7568 9.40923 30.9149C9.47488 31.0731 9.57104 31.2167 9.6922 31.3377C9.81337 31.4586 9.95717 31.5545 10.1154 31.6199C10.2736 31.6853 10.4432 31.7189 10.6144 31.7188H31.505C31.6764 31.7192 31.8462 31.6858 32.0047 31.6206C32.1632 31.5553 32.3073 31.4594 32.4287 31.3384C32.5501 31.2174 32.6464 31.0737 32.7122 30.9154C32.778 30.7572 32.8119 30.5875 32.8121 30.4161V24.6094L21.4163 16.7891Z" fill="#185C37"/>
<path d="M21.4163 3.28125H10.6144C10.4432 3.28111 10.2736 3.31469 10.1154 3.38007C9.95717 3.44546 9.81337 3.54137 9.6922 3.66234C9.57104 3.7833 9.47488 3.92694 9.40923 4.08507C9.34358 4.24319 9.30971 4.4127 9.30957 4.58391V10.3906L21.4163 17.5L27.8268 19.6328L32.8121 17.5V10.3906L21.4163 3.28125Z" fill="#21A366"/>
<path d="M9.30957 10.3906H21.4163V17.5H9.30957V10.3906Z" fill="#107C41"/>
<path opacity="0.1" d="M17.9743 8.96875H9.30957V26.7422H17.9743C18.3195 26.7405 18.6502 26.6028 18.8946 26.3589C19.1391 26.1151 19.2776 25.7848 19.2802 25.4395V10.2714C19.2776 9.92615 19.1391 9.59582 18.8946 9.35199C18.6502 9.10816 18.3195 8.97047 17.9743 8.96875Z" fill="black"/>
<path opacity="0.2" d="M17.2622 9.67969H9.30957V27.4531H17.2622C17.6075 27.4514 17.9382 27.3137 18.1826 27.0699C18.4271 26.8261 18.5656 26.4957 18.5682 26.1505V10.9823C18.5656 10.6371 18.4271 10.3068 18.1826 10.0629C17.9382 9.8191 17.6075 9.6814 17.2622 9.67969Z" fill="black"/>
<path opacity="0.2" d="M17.2622 9.67969H9.30957V26.0312H17.2622C17.6075 26.0295 17.9382 25.8918 18.1826 25.648C18.4271 25.4042 18.5656 25.0738 18.5682 24.7286V10.9823C18.5656 10.6371 18.4271 10.3068 18.1826 10.0629C17.9382 9.8191 17.6075 9.6814 17.2622 9.67969Z" fill="black"/>
<path opacity="0.2" d="M16.5502 9.67969H9.30957V26.0312H16.5502C16.8955 26.0295 17.2261 25.8918 17.4706 25.648C17.715 25.4042 17.8535 25.0738 17.8561 24.7286V10.9823C17.8535 10.6371 17.715 10.3068 17.4706 10.0629C17.2261 9.8191 16.8955 9.6814 16.5502 9.67969Z" fill="black"/>
<path d="M3.49344 9.67969H16.5506C16.8965 9.6794 17.2283 9.81644 17.4732 10.0607C17.7181 10.305 17.856 10.6365 17.8566 10.9823V24.0177C17.856 24.3635 17.7181 24.695 17.4732 24.9393C17.2283 25.1836 16.8965 25.3206 16.5506 25.3203H3.49344C3.32213 25.3206 3.15245 25.2871 2.99409 25.2218C2.83574 25.1565 2.6918 25.0606 2.57052 24.9396C2.44924 24.8186 2.35299 24.6749 2.28726 24.5168C2.22154 24.3586 2.18764 24.189 2.1875 24.0177V10.9823C2.18764 10.811 2.22154 10.6414 2.28726 10.4833C2.35299 10.3251 2.44924 10.1814 2.57052 10.0604C2.6918 9.93941 2.83574 9.84352 2.99409 9.7782C3.15245 9.71288 3.32213 9.6794 3.49344 9.67969Z" fill="url(#paint0_linear_2539_507)"/>
<path d="M6.23438 21.7361L8.98078 17.488L6.46516 13.2639H8.48531L9.85797 15.9688C9.98484 16.2247 10.0767 16.415 10.1183 16.5419H10.1369C10.2266 16.3363 10.3217 16.1383 10.4213 15.9447L11.8891 13.2683H13.7484L11.1683 17.4683L13.8141 21.7394H11.8355L10.2495 18.7742C10.1759 18.6467 10.1133 18.5132 10.0625 18.375H10.0362C9.99 18.5096 9.92835 18.6385 9.8525 18.7589L8.21953 21.7361H6.23438Z" fill="white"/>
<path d="M31.5068 3.28125H21.417V10.3906H32.8128V4.58391C32.8126 4.41261 32.7787 4.24301 32.713 4.08481C32.6473 3.92662 32.551 3.78293 32.4298 3.66195C32.3085 3.54097 32.1645 3.44508 32.0062 3.37976C31.8478 3.31444 31.6781 3.28096 31.5068 3.28125Z" fill="#33C481"/>
<path d="M21.417 17.5H32.8128V24.6094H21.417V17.5Z" fill="#107C41"/>
<defs>
<linearGradient id="paint0_linear_2539_507" x1="4.91531" y1="8.65594" x2="15.1288" y2="26.3441" gradientUnits="userSpaceOnUse">
<stop stop-color="#18884F"/>
<stop offset="0.5" stop-color="#117E43"/>
<stop offset="1" stop-color="#0B6631"/>
</linearGradient>
</defs>
</svg>
