<svg width="35" height="35" viewBox="0 0 35 35" fill="none" xmlns="http://www.w3.org/2000/svg">
<g clip-path="url(#clip0_2539_500)">
<path d="M23.7722 23.6664C23.1981 23.6318 21.8179 23.7136 20.4356 23.9762C19.636 23.1669 18.9436 22.1474 18.4299 21.3066C20.0759 16.5739 19.0334 15.2288 17.6303 15.2288C16.5284 15.2288 15.9783 16.3916 16.1007 17.6764C16.1626 18.3231 16.7103 19.682 17.3845 20.9729C16.9709 22.0606 16.2328 23.8991 15.5002 25.2295C14.6427 25.4901 13.9071 25.7797 13.3792 26.024C10.7498 27.2468 10.5385 28.8796 11.0856 29.5714C12.1245 30.8857 14.3379 29.7518 16.5589 25.7797C18.0794 25.3473 20.08 24.7713 20.2603 24.7713C20.2811 24.7713 20.3096 24.7779 20.3426 24.7885C21.451 25.7659 22.7602 26.8851 23.8377 27.0324C25.3968 27.2468 26.2843 26.116 26.2228 25.4129C26.1618 24.7093 25.7508 23.7852 23.7722 23.6664ZM13.9295 27.9508C13.2868 28.715 12.2474 29.4479 11.8806 29.2041C11.5133 28.9598 11.4523 28.2567 12.2784 27.4612C13.1039 26.6667 14.4857 26.2542 14.6934 26.1769C14.9389 26.0855 14.9998 26.1769 14.9998 26.2994C14.9998 26.4218 14.5716 27.1858 13.9295 27.9508ZM16.7433 17.6758C16.6818 16.9107 16.8342 16.1772 17.4768 16.0858C18.1185 15.9934 18.4248 16.7274 18.1804 17.9197C17.9355 19.1136 17.8126 19.9076 17.6907 20.0006C17.5683 20.0921 17.4468 19.7857 17.4468 19.7857C17.2015 19.2959 16.8042 18.4399 16.7433 17.6758ZM16.9881 24.8622C17.3239 24.3109 18.1805 22.0798 18.1805 22.0798C18.3639 22.4165 19.8005 24.1276 19.8005 24.1276C19.8005 24.1276 17.5988 24.6179 16.9881 24.8622ZM23.6528 25.8396C22.7358 25.7187 21.1767 24.6163 21.1767 24.6163C20.9629 24.5249 22.8852 24.2638 23.6233 24.311C24.5718 24.3725 24.908 24.7702 24.908 25.1675C24.908 25.5652 24.5718 25.9621 23.6528 25.8396Z" fill="black"/>
<path d="M31.5369 7.35957L24.8145 0.636563L24.1778 0H23.2766H9.5669C6.32988 0 3.69641 2.63402 3.69641 5.87214V6.32126H2.82715V13.344H3.69641V29.1285C3.69641 32.366 6.32995 35.0001 9.56697 35.0001H26.3019C29.5399 35.0001 32.1735 32.366 32.1735 29.1285V8.89731V7.99661L31.5369 7.35957ZM26.3018 32.8257H9.5669C7.52467 32.8257 5.86962 31.1706 5.86962 29.1284V13.344H16.6232V6.32119H5.86962V5.87207C5.86962 3.82936 7.52467 2.17369 9.5669 2.17369H22.7564V6.33637C22.7564 8.0377 24.1367 9.41698 25.838 9.41698H30.0001V29.1283C30.0001 31.1706 28.3445 32.8257 26.3018 32.8257ZM6.02206 11.3535V8.10277C6.02206 8.04542 6.06875 7.99859 6.12624 7.99859H7.15901C7.32923 7.99859 7.48618 8.02655 7.62639 8.08145C7.76509 8.13579 7.88697 8.21201 7.98862 8.30854C8.09123 8.40554 8.16998 8.52346 8.2233 8.6586C8.27662 8.79115 8.3041 8.93601 8.3041 9.08886C8.3041 9.24485 8.27662 9.3906 8.22275 9.52171C8.16943 9.65282 8.09068 9.7691 7.9891 9.8672C7.888 9.96475 7.76557 10.0414 7.62536 10.0948C7.48618 10.1481 7.32923 10.175 7.15901 10.175H6.72315V11.3536C6.72315 11.411 6.67646 11.4577 6.61904 11.4577H6.12631C6.06875 11.4577 6.02206 11.411 6.02206 11.3535ZM9.20726 11.3535V8.10277C9.20726 8.04542 9.25402 7.99859 9.31144 7.99859H10.4529C10.6698 7.99859 10.8609 8.03469 11.0219 8.10578C11.185 8.17838 11.3308 8.29377 11.4558 8.44819C11.5203 8.52947 11.5716 8.61937 11.6087 8.71589C11.6448 8.80988 11.6722 8.91153 11.6899 9.01715C11.7072 9.12181 11.7174 9.2346 11.7209 9.35601C11.724 9.47181 11.7255 9.59629 11.7255 9.72836C11.7255 9.85988 11.724 9.98443 11.7209 10.1002C11.7174 10.2212 11.7072 10.3344 11.6899 10.4396C11.6722 10.5453 11.6448 10.6464 11.6087 10.7403C11.5711 10.8378 11.5198 10.9278 11.4562 11.0075C11.3303 11.1635 11.1844 11.2788 11.0219 11.3504C10.8623 11.4215 10.6708 11.4576 10.4528 11.4576H9.31138C9.25395 11.4577 9.20726 11.411 9.20726 11.3535ZM14.6476 9.4323C14.705 9.4323 14.7517 9.47905 14.7517 9.53647V9.97944C14.7517 10.0369 14.705 10.0836 14.6476 10.0836H13.4004V11.3537C13.4004 11.4111 13.3537 11.4578 13.2962 11.4578H12.8034C12.746 11.4578 12.6993 11.4111 12.6993 11.3537V8.10291C12.6993 8.04556 12.746 7.99873 12.8034 7.99873H14.6938C14.7511 7.99873 14.798 8.04549 14.798 8.10291V8.54588C14.798 8.6033 14.7512 8.65006 14.6938 8.65006H13.4004V9.43236L14.6476 9.4323Z" fill="black"/>
<path d="M7.4796 9.41348C7.56245 9.33883 7.60251 9.23267 7.60251 9.08884C7.60251 8.94556 7.56238 8.83939 7.4796 8.76475C7.39326 8.6875 7.27944 8.6499 7.1311 8.6499H6.72266V9.52818H7.1311C7.27937 9.52825 7.39326 9.49072 7.4796 9.41348Z" fill="black"/>
<path d="M10.6737 10.7652C10.7509 10.7362 10.8175 10.6896 10.8769 10.6225C10.9415 10.5504 10.9821 10.4467 10.9979 10.3141C11.0156 10.1632 11.0242 9.9661 11.0242 9.72835C11.0242 9.49012 11.0156 9.29297 10.9979 9.14258C10.9821 9.00955 10.9415 8.90592 10.8774 8.83428C10.818 8.76715 10.7494 8.7195 10.6742 8.69147C10.5934 8.66051 10.501 8.64526 10.3979 8.64526H9.9082V10.8109H10.3979C10.5005 10.811 10.5934 10.7957 10.6737 10.7652Z" fill="black"/>
</g>
<defs>
<clipPath id="clip0_2539_500">
<rect width="35" height="35" fill="white"/>
</clipPath>
</defs>
</svg>
